<svg width="29" height="29" viewBox="0 0 29 29" fill="none" xmlns="http://www.w3.org/2000/svg">
<path d="M27.1875 7.25C27.1875 6.28859 26.8056 5.36656 26.1258 4.68674C25.4459 4.00692 24.5239 3.625 23.5625 3.625H22.6562V2.74424C22.6562 2.25656 22.2813 1.83799 21.7936 1.81363C21.6711 1.80773 21.5486 1.82677 21.4337 1.86959C21.3187 1.91241 21.2136 1.97812 21.1248 2.06275C21.036 2.14738 20.9653 2.24916 20.917 2.36192C20.8687 2.47468 20.8438 2.59608 20.8438 2.71875V3.625H8.15625V2.74424C8.15625 2.25656 7.78129 1.83799 7.29361 1.81363C7.17108 1.80773 7.04862 1.82677 6.93366 1.86959C6.8187 1.91241 6.71364 1.97812 6.62482 2.06275C6.53601 2.14738 6.46531 2.24916 6.41699 2.36192C6.36868 2.47468 6.34376 2.59608 6.34375 2.71875V3.625H5.4375C4.47609 3.625 3.55406 4.00692 2.87424 4.68674C2.19442 5.36656 1.8125 6.28859 1.8125 7.25V7.92969C1.8125 7.98978 1.83637 8.0474 1.87886 8.08989C1.92135 8.13238 1.97897 8.15625 2.03906 8.15625H26.9609C27.021 8.15625 27.0787 8.13238 27.1211 8.08989C27.1636 8.0474 27.1875 7.98978 27.1875 7.92969V7.25ZM1.8125 23.5625C1.8125 24.5239 2.19442 25.4459 2.87424 26.1258C3.55406 26.8056 4.47609 27.1875 5.4375 27.1875H23.5625C24.5239 27.1875 25.4459 26.8056 26.1258 26.1258C26.8056 25.4459 27.1875 24.5239 27.1875 23.5625V10.1953C27.1875 10.1352 27.1636 10.0776 27.1211 10.0351C27.0787 9.99262 27.021 9.96875 26.9609 9.96875H2.03906C1.97897 9.96875 1.92135 9.99262 1.87886 10.0351C1.83637 10.0776 1.8125 10.1352 1.8125 10.1953V23.5625Z" fill="#6B6B6B"/>
</svg>
