<svg width="28" height="28" viewBox="0 0 28 28" fill="none" xmlns="http://www.w3.org/2000/svg">
<path d="M14 26.25C20.7655 26.25 26.25 20.7655 26.25 14C26.25 7.2345 20.7655 1.75 14 1.75C7.2345 1.75 1.75 7.2345 1.75 14C1.75 20.7655 7.2345 26.25 14 26.25ZM13.125 9.625C13.125 9.39294 13.2172 9.17038 13.3813 9.00628C13.5454 8.84219 13.7679 8.75 14 8.75C14.2321 8.75 14.4546 8.84219 14.6187 9.00628C14.7828 9.17038 14.875 9.39294 14.875 9.625V13.125H18.375C18.6071 13.125 18.8296 13.2172 18.9937 13.3813C19.1578 13.5454 19.25 13.7679 19.25 14C19.25 14.2321 19.1578 14.4546 18.9937 14.6187C18.8296 14.7828 18.6071 14.875 18.375 14.875H14.875V18.375C14.875 18.6071 14.7828 18.8296 14.6187 18.9937C14.4546 19.1578 14.2321 19.25 14 19.25C13.7679 19.25 13.5454 19.1578 13.3813 18.9937C13.2172 18.8296 13.125 18.6071 13.125 18.375V14.875H9.625C9.39294 14.875 9.17038 14.7828 9.00628 14.6187C8.84219 14.4546 8.75 14.2321 8.75 14C8.75 13.7679 8.84219 13.5454 9.00628 13.3813C9.17038 13.2172 9.39294 13.125 9.625 13.125H13.125V9.625Z" fill="#FF4F5A"/>
</svg>
