<svg width="22" height="22" viewBox="0 0 22 22" fill="none" xmlns="http://www.w3.org/2000/svg">
<path d="M19.25 17.4167H8.25M2.75 4.58334H6.41667H2.75ZM19.25 4.58334H10.0833H19.25ZM2.75 11H13.75H2.75ZM19.25 11H17.4167H19.25ZM2.75 17.4167H4.58333H2.75Z" stroke="black" stroke-width="2" stroke-linecap="round"/>
<path d="M8.25008 6.41667C9.2626 6.41667 10.0834 5.59586 10.0834 4.58333C10.0834 3.57081 9.2626 2.75 8.25008 2.75C7.23756 2.75 6.41675 3.57081 6.41675 4.58333C6.41675 5.59586 7.23756 6.41667 8.25008 6.41667Z" stroke="black" stroke-width="2" stroke-linecap="round"/>
<path d="M15.5833 12.8333C16.5959 12.8333 17.4167 12.0125 17.4167 11C17.4167 9.98747 16.5959 9.16666 15.5833 9.16666C14.5708 9.16666 13.75 9.98747 13.75 11C13.75 12.0125 14.5708 12.8333 15.5833 12.8333Z" stroke="black" stroke-width="2" stroke-linecap="round"/>
<path d="M6.41659 19.25C7.42911 19.25 8.24992 18.4292 8.24992 17.4167C8.24992 16.4042 7.42911 15.5833 6.41659 15.5833C5.40406 15.5833 4.58325 16.4042 4.58325 17.4167C4.58325 18.4292 5.40406 19.25 6.41659 19.25Z" stroke="black" stroke-width="2" stroke-linecap="round"/>
</svg>
