<svg width="22" height="22" viewBox="0 0 22 22" fill="none" xmlns="http://www.w3.org/2000/svg">
<path d="M19.25 17.4166H8.25M2.75 4.58331H6.41667H2.75ZM19.25 4.58331H10.0833H19.25ZM2.75 11H13.75H2.75ZM19.25 11H17.4167H19.25ZM2.75 17.4166H4.58333H2.75Z" stroke="#FF4F5A" stroke-width="2" stroke-linecap="round"/>
<path d="M8.24984 6.41667C9.26236 6.41667 10.0832 5.59586 10.0832 4.58333C10.0832 3.57081 9.26236 2.75 8.24984 2.75C7.23732 2.75 6.4165 3.57081 6.4165 4.58333C6.4165 5.59586 7.23732 6.41667 8.24984 6.41667Z" stroke="#FF4F5A" stroke-width="2" stroke-linecap="round"/>
<path d="M15.5833 12.8334C16.5959 12.8334 17.4167 12.0125 17.4167 11C17.4167 9.9875 16.5959 9.16669 15.5833 9.16669C14.5708 9.16669 13.75 9.9875 13.75 11C13.75 12.0125 14.5708 12.8334 15.5833 12.8334Z" stroke="#FF4F5A" stroke-width="2" stroke-linecap="round"/>
<path d="M6.41683 19.25C7.42935 19.25 8.25016 18.4292 8.25016 17.4166C8.25016 16.4041 7.42935 15.5833 6.41683 15.5833C5.40431 15.5833 4.5835 16.4041 4.5835 17.4166C4.5835 18.4292 5.40431 19.25 6.41683 19.25Z" stroke="#FF4F5A" stroke-width="2" stroke-linecap="round"/>
</svg>
